<svg xmlns="http://www.w3.org/2000/svg" width="43.365" height="31.262" viewBox="0 0 43.365 31.262">
  <path id="Icon_feather-twitter" data-name="Icon feather-twitter" d="M39.839.016a21.531,21.531,0,0,1-5.686,2.322A9.191,9.191,0,0,0,25.138.447c-3.18,1.017-5.265,3.591-5.219,6.444V8.409c-6.464.14-12.582-2.441-16.3-6.876,0,0-7.243,13.66,9.054,19.731A24.141,24.141,0,0,1,0,24.3c16.3,7.589,36.217,0,36.217-17.454a5.763,5.763,0,0,0-.145-1.26A11.407,11.407,0,0,0,39.839.016Z" transform="matrix(1, -0.017, 0.017, 1, 1.528, 2.329)" fill="#7dbed8" stroke="#2d728d" stroke-linecap="round" stroke-linejoin="round" stroke-width="3"/>
</svg>
