<svg id="Icon_ionic-logo-instagram" data-name="Icon ionic-logo-instagram" xmlns="http://www.w3.org/2000/svg" width="45.716" height="32.579" viewBox="0 0 45.716 32.579">
  <path id="Tracé_231" data-name="Tracé 231" d="M36.882,7.215a11.719,11.719,0,0,1,6.727,1.994A5.953,5.953,0,0,1,46.407,14V27.577a6,6,0,0,1-2.8,4.793,11.629,11.629,0,0,1-6.727,1.994H17.834a11.719,11.719,0,0,1-6.726-1.994,5.953,5.953,0,0,1-2.8-4.793V14a6,6,0,0,1,2.8-4.793,11.629,11.629,0,0,1,6.726-1.994H36.882m0-2.715H17.834C10.5,4.5,4.5,8.776,4.5,14V27.577c0,5.226,6,9.5,13.334,9.5H36.882c7.334,0,13.334-4.276,13.334-9.5V14c0-5.226-6-9.5-13.334-9.5Z" transform="translate(-4.5 -4.5)" fill="#7dbed8"/>
  <path id="Tracé_232" data-name="Tracé 232" d="M26.482,15.109a2.954,2.954,0,0,1-2.857-3.055,2.864,2.864,0,1,1,5.715,0A2.962,2.962,0,0,1,26.482,15.109Z" transform="translate(8.757 -3.958)" fill="#7dbed8"/>
  <path id="Tracé_233" data-name="Tracé 233" d="M22.679,15.067A7.635,7.635,0,1,1,15.06,22.7a7.634,7.634,0,0,1,7.619-7.634m0-3.817A11.452,11.452,0,1,0,34.108,22.7,11.443,11.443,0,0,0,22.679,11.25Z" transform="translate(1.132 -6.208)" fill="#7dbed8"/>
</svg>
