<svg xmlns="http://www.w3.org/2000/svg" width="41.818" height="31.252" viewBox="0 0 41.818 31.252">
  <path id="Icon_ionic-logo-facebook" data-name="Icon ionic-logo-facebook" d="M43.065,4.5H6.753C5.51,4.5,4.5,5.248,4.5,6.17V33.082c0,.922,1.01,1.67,2.253,1.67H24.909V22.777H20.03V18.366h4.879V15.1c0-3.908,3.657-6.035,8.366-6.035,2.253,0,4.677.126,5.24.181v4.081H34.763c-2.562,0-3.051.9-3.051,2.222v2.813h6.1l-.8,4.412h-5.3V34.752H43.065c1.244,0,2.254-.748,2.254-1.67V6.17C45.318,5.248,44.308,4.5,43.065,4.5Z" transform="translate(-4 -4)" fill="#7dbed8" stroke="#2d728d" stroke-width="1"/>
</svg>
